# xmcd
#
# Track frame offsets:
# 150
# 8485
# 19077
# 28574
# 40254
# 48791
# 57096
# 68258
# 80065
# 91467
# 103117
# 113679
# 123859
# 136731
# 146461
# 159033
# 163745
# 180217
# 191612
# 202054
# 212556
# 226201
#
# Disc length: 3211 seconds
#
#
# Revision: 0
# Processed by: cddbd v1.5.2PL0 Copyright (c) Steve Scherf et al.
# Submitted via: FreeRIP 2.951 
#
DISCID=0c0c8916
DTITLE=Moreno Maia - Gaiteiro Internacional
DYEAR=2006
DGENRE=Country
TTITLE0=A baixaria é que manda
TTITLE1=De Pelotas a Porto Alegre
TTITLE2=Porteira dos Pampas
TTITLE3=Pajaro Campana
TTITLE4=Tira prosa
TTITLE5=Fandango Gaucho
TTITLE6=Chuva de pedra
TTITLE7=Arrastando espora
TTITLE8=Seu Maneco tira fogo
TTITLE9=Minha Chinóca
TTITLE10=Mate amargo
TTITLE11=Fronteira Gaucha
TTITLE12=Recado de Amor
TTITLE13=Saudação ao Rio Grande
TTITLE14=Saudade de Soledade
TTITLE15=Ó Gauchinha vem cá
TTITLE16=Moreno de Mato Grosso
TTITLE17=A dama do Fuscão Preto
TTITLE18=Minha vida é êle
TTITLE19=Peito Xonado
TTITLE20=Vestido Branco
TTITLE21=Homenagem a Maracajú
EXTD=NELDVD2007
EXTT0=
EXTT1=
EXTT2=
EXTT3=
EXTT4=
EXTT5=
EXTT6=
EXTT7=
EXTT8=
EXTT9=
EXTT10=
EXTT11=
EXTT12=
EXTT13=
EXTT14=
EXTT15=
EXTT16=
EXTT17=
EXTT18=
EXTT19=
EXTT20=
EXTT21=
PLAYORDER=
